<?xml version="1.0" encoding="UTF-8" standalone="no"?>
<svg
   xmlns:dc="http://purl.org/dc/elements/1.1/"
   xmlns:cc="http://creativecommons.org/ns#"
   xmlns:rdf="http://www.w3.org/1999/02/22-rdf-syntax-ns#"
   xmlns:svg="http://www.w3.org/2000/svg"
   xmlns="http://www.w3.org/2000/svg"
   xmlns:sodipodi="http://sodipodi.sourceforge.net/DTD/sodipodi-0.dtd"
   xmlns:inkscape="http://www.inkscape.org/namespaces/inkscape"
   width="30cm"
   height="20cm"
   viewBox="0 0 850.39367 566.92912"
   version="1.1"
   id="svg3336"
   inkscape:version="0.92.4 (5da689c313, 2019-01-14)"
   sodipodi:docname="cert_no_bg_stencil.svg">
  <metadata
     id="metadata3370">
    <rdf:RDF>
      <cc:Work
         rdf:about="">
        <dc:format>image/svg+xml</dc:format>
        <dc:type
           rdf:resource="http://purl.org/dc/dcmitype/StillImage" />
        <dc:title></dc:title>
      </cc:Work>
    </rdf:RDF>
  </metadata>
  <defs
     id="defs3368" />
  <sodipodi:namedview
     pagecolor="#ffffff"
     bordercolor="#666666"
     borderopacity="1"
     objecttolerance="10"
     gridtolerance="10"
     guidetolerance="10"
     inkscape:pageopacity="0"
     inkscape:pageshadow="2"
     inkscape:window-width="1920"
     inkscape:window-height="1016"
     id="namedview3366"
     showgrid="false"
     inkscape:zoom="1.0914062"
     inkscape:cx="566.92913"
     inkscape:cy="394.96789"
     inkscape:window-x="0"
     inkscape:window-y="27"
     inkscape:window-maximized="1"
     inkscape:current-layer="g3403"
     units="cm" />
  <g
     id="g3403"
     transform="matrix(8.6036562,0,0,8.6036562,-16.160253,-3897.6527)"
     style="fill:#800000">
    <path
       style="fill:#800000;stroke-width:0.15793961"
       d="m 32.014942,455.64737 v 2.17154 c 1.730296,-0.0117 3.460692,-0.002 5.190624,0.0313 2.534933,0.0821 5.085663,0.16424 7.587432,0.61437 0.86709,0.1911 1.885796,0.3601 2.406991,1.16718 0.699675,1.104 0.510155,2.46703 0.762858,3.69422 0.06317,0.3601 0.26376,0.75179 0.634916,0.86709 0.587531,0.10897 1.198755,0.0947 1.775228,-0.0759 0.09007,-2.10533 -0.113712,-4.30541 -1.110303,-6.19595 -0.326934,-0.56227 -0.750214,-1.23984 -1.467255,-1.29195 -5.219869,-0.80377 -10.50435,-0.97191 -15.780491,-0.98197 z m -1.573903,9.1e-4 c -0.533492,0.002 -1.066839,0.005 -1.59993,0.008 -4.850326,0.0901 -9.694362,0.38221 -14.538362,0.66334 -0.611233,0.0442 -1.233505,0.0269 -1.835257,0.15164 -0.587531,0.23691 -0.871811,0.86234 -1.115043,1.40565 -0.592271,1.48937 -0.816551,3.09088 -1.042407,4.66871 -0.3522036,3.08456 -0.5464552,6.19912 -0.3711466,9.30264 0.025434,0.65825 0.049864,1.3173 0.0763,1.97655 h 2.221965 c -0.02717,-1.13203 -0.01249,-2.26447 0.02507,-3.38855 0.01422,-2.43069 -0.04895,-4.87559 0.356943,-7.28102 0.230597,-1.29826 0.565416,-2.6597 1.448304,-3.67999 0.519618,-0.62544 1.321948,-0.91287 2.116393,-0.94604 4.741974,-0.39114 9.498488,-0.62501 14.257217,-0.69366 z m -20.347202,19.95406 c 0.131561,2.64258 0.343288,5.28115 0.841647,7.88118 0.229011,1.03767 0.478541,2.10218 1.048707,3.01349 0.232165,0.36326 0.587549,0.72021 1.043993,0.7439 5.931741,0.15869 11.865888,0.12686 17.799781,0.11851 v -2.23571 c -1.829195,-0.0208 -3.658208,-0.0361 -5.48682,0.007 -1.6789,-0.0632 -3.360946,-0.0901 -5.038269,0.011 -1.483054,0.0506 -3.008734,0.11216 -4.444412,-0.32849 -0.919206,-0.28272 -1.716805,-0.96028 -2.064277,-1.86685 -0.884647,-2.36001 -1.308173,-4.83988 -1.477173,-7.34421 z m 39.088713,2.50764 c -0.423709,0.002 -0.850134,0.1685 -1.03176,0.57377 -0.271655,0.65545 -0.225847,1.38672 -0.353771,2.07533 -0.202164,1.16717 -0.462762,2.39434 -1.206659,3.3483 -0.390116,0.51646 -1.03609,0.72495 -1.658371,0.76759 -2.779732,0.24955 -5.575262,0.21324 -8.362898,0.27168 -1.438395,0.0201 -2.87678,0.009 -4.315093,-0.006 v 2.21788 c 4.33926,-0.003 8.678255,0.017 13.015983,0.14203 1.06609,-0.0458 2.225364,0.009 3.168271,-0.57175 0.590695,-0.34272 0.674397,-1.06608 0.843388,-1.66309 0.44381,-1.80999 0.919197,-3.63578 0.996591,-5.50737 0.0095,-0.5591 -0.01422,-1.3172 -0.614368,-1.5778 -0.15014,-0.0458 -0.315512,-0.0706 -0.481313,-0.0699 z"
       id="path3340"
       inkscape:connector-curvature="0" />
    <path
       style="fill:#800000;stroke-width:0.15793961"
       d="m 29.698108,458.46517 c -0.249348,-0.002 -0.49928,0.0247 -0.746459,0.0705 -0.458021,0.53858 -0.529089,1.27301 -0.462752,1.95057 0.116875,1.29036 0.356944,2.63284 -0.07585,3.8932 -0.04795,0.19517 -0.132773,0.39107 -0.252584,0.5569 l 1.207679,1.53102 c 0.39503,-0.28267 0.706294,-0.65671 0.835923,-1.16082 0.628598,-2.18588 0.519617,-4.51388 0.236905,-6.74715 -0.244809,-0.064 -0.493555,-0.0928 -0.742904,-0.0942 z m -2.899388,7.0062 c -4.382797,0.64831 -8.838002,0.62789 -13.257245,0.52694 -0.271655,0.0237 -0.495907,0.199 -0.737552,0.30798 0.0018,0.45171 -0.0027,0.90185 -0.0046,1.35356 2.448067,-0.041 4.896134,-0.008 7.342624,0.06 2.54599,0 5.133038,0.0537 7.620587,-0.5654 0.09805,-0.0257 0.197642,-0.0536 0.297753,-0.084 z"
       id="path3342"
       inkscape:connector-curvature="0" />
    <path
       style="fill:#800000;stroke-width:0.15793961"
       d="m 32.988779,458.34726 c -0.416088,0.002 -0.836679,0.30068 -0.898868,0.73489 -0.592271,3.87426 -1.203504,7.74534 -1.814737,11.61644 -0.450127,0.0127 -0.990264,-0.0521 -1.317198,0.33011 -0.25903,0.1911 -0.415386,0.60963 -0.778647,0.59226 -0.908148,-0.88288 -2.12745,-1.8005 -3.471513,-1.48304 -1.072408,0.5212 -2.168509,1.02501 -3.3341,1.3093 -0.663349,0.0679 -1.345658,-0.0489 -1.993209,0.1611 -1.342486,0.39801 -2.749732,0.16742 -4.125381,0.26218 -0.661772,0.0616 -1.543064,-0.24954 -2.01846,0.368 -0.393271,0.49277 -0.04111,1.31722 0.592262,1.37408 1.317226,0.0489 2.639174,0.002 3.957967,0.0221 0.965013,0.0427 1.877911,-0.35693 2.836597,-0.38536 1.650468,0.1074 3.136676,-0.73914 4.605518,-1.363 0.342732,-0.0695 0.615955,0.22267 0.908148,0.35218 0.505406,0.24954 0.723368,0.86395 1.274582,1.04874 0.919205,0.26376 2.004266,0.0537 2.599692,-0.74864 0.511732,-0.0963 1.045561,-0.12951 1.533592,-0.3222 0.552791,-0.36642 0.521195,-1.08822 0.562262,-1.67259 0.233751,-1.51938 0.476973,-3.03559 0.683878,-4.55814 0.28429,2.48597 0.529089,4.97825 0.800744,7.46422 0.0095,0.58912 0.701253,1.02979 1.236668,0.77708 0.492771,-0.23848 0.65704,-0.80864 1.012398,-1.18769 0.481723,-0.56227 1.252457,-0.93345 2.001094,-0.75339 1.103995,0.27797 2.02795,-0.59385 2.790799,-1.26351 0.336415,-0.3838 0.826022,-0.0727 1.134004,0.18162 1.043976,0.71389 2.488843,2.01468 3.241765,1.98263 3.681626,0.15573 7.271291,0.28201 10.875624,0.37739 l 0.447702,-1.71204 c -0.850253,-0.0194 -1.700469,-0.0375 -2.550622,-0.0541 -3.002434,-0.0664 -5.649365,-0.19481 -8.648636,-0.35907 -0.920145,-0.18429 -1.180432,-0.86781 -1.762758,-1.28507 -0.532253,-0.33168 -0.987092,-0.79443 -1.569893,-1.03924 -0.371155,-0.0537 -0.74706,-0.0411 -1.118215,-0.0252 -0.979225,-0.0315 -1.42937,1.02188 -2.244335,1.3804 -0.560685,0.0379 -1.127678,-0.0489 -1.685209,0.041 -0.585954,0.12636 -1.121379,0.40749 -1.620476,0.72968 -0.364838,-3.75264 -0.783369,-7.49897 -1.186111,-11.24688 -0.0742,-0.50541 0.02525,-1.15136 -0.459617,-1.47672 -0.146757,-0.11769 -0.321628,-0.17011 -0.497311,-0.16946 z m 5.206441,0.38284 c -0.263396,4e-4 -0.526975,0.009 -0.789049,0.002 -0.445395,2.00898 -0.658617,4.15065 -0.161106,6.16912 0.04604,0.21851 0.140003,0.39982 0.26563,0.55453 l 1.625882,-2.06116 c -0.272065,-1.37988 0.209101,-2.79366 -0.05944,-4.17764 -0.05843,-0.16425 -0.0474,-0.42802 -0.268501,-0.4596 -0.203841,-0.0222 -0.408585,-0.027 -0.613448,-0.0267 z m 33.993223,5.74906 c -0.01221,0 -0.02434,1e-5 -0.03655,2.5e-4 -0.234034,0.005 -0.467666,0.0633 -0.684443,0.18589 2.02795,3.32147 4.509171,6.50554 5.377838,10.38138 -0.173731,0.18005 -0.347463,0.36009 -0.52278,0.53698 -0.230588,-0.18795 -0.459608,-0.39958 -0.518041,-0.70599 -0.878147,-3.10193 -2.827135,-5.73953 -4.793479,-8.23971 -0.409069,-0.48329 -0.734417,-1.06923 -1.299833,-1.39142 -0.42802,-0.25113 -0.860781,-0.67283 -1.397774,-0.53542 -0.187952,0.10108 -0.345886,0.24479 -0.510137,0.37588 2.21747,2.7513 4.619739,5.46946 5.929061,8.802 0.154779,0.31745 0.142136,0.67437 0.14529,1.01868 -1.110312,-2.53019 -2.694453,-4.86453 -4.701864,-6.76928 -2.102172,-1.34249 -4.542336,-2.08006 -6.995134,-2.45438 -0.770679,-0.1136 -1.542617,-0.19675 -2.315548,-0.25616 l -0.453317,1.73366 c 0.820835,0.0134 1.640713,0.0573 2.457711,0.15244 2.211153,0.24165 4.493392,0.79286 6.27337,2.19379 0.44855,0.39959 0.83069,0.81886 1.28542,1.33237 2.059673,3.27099 -0.351994,2.10281 -0.351994,2.10281 -1.122947,-0.37748 -1.987502,-0.69886 -3.449407,-0.8197 -2.483528,-0.0894 -4.968295,-0.16448 -7.453145,-0.22712 l -0.448203,1.71406 c 1.883799,0.0442 3.776487,0.0798 5.693368,0.10667 1.93318,-0.0205 4.09693,-0.0442 5.673167,1.2556 -3.890017,-0.22817 -7.785512,-0.22388 -11.680434,-0.16183 l -0.469398,1.79514 c 2.847291,0.0699 5.694408,0.12769 8.536183,0.0298 0.377473,0.002 0.810243,-0.11373 1.09611,0.21163 -0.172155,0.41539 -0.222694,0.99817 0.232173,1.25246 2.149557,0.95238 4.616567,1.03609 6.881421,0.47225 2.797107,-0.67915 5.328868,-2.13218 7.701117,-3.71948 -2.286961,3.04193 -6.033274,4.68448 -9.75749,5.0209 -0.912897,0.0916 -1.876343,0.06 -2.71974,0.47539 -0.285867,0.13268 -0.443782,0.41381 -0.6191,0.6602 0.83234,0.82918 2.03424,1.12924 3.180879,1.0487 3.004012,-0.19269 5.998561,-1.18453 8.366079,-3.07506 1.756286,-1.35039 3.193541,-3.22199 3.675264,-5.41734 -0.271664,-0.0679 -0.584386,-0.0742 -0.792868,-0.28271 -0.05369,-0.6744 0.519627,-1.23668 0.405905,-1.91898 -0.0711,-0.368 -0.453271,-0.53383 -0.747042,-0.69335 -0.652291,0.34905 -0.874993,1.10716 -1.423043,1.56834 -0.508569,-1.35828 -0.668098,-2.8287 -1.298274,-4.14276 -0.396434,-0.82918 -1.031331,-1.56517 -1.862094,-1.97739 -0.420117,-0.0789 -0.518059,0.45961 -0.68705,0.72652 1.002917,2.07691 1.855795,4.2691 2.124296,6.57187 -0.151616,0.22427 -0.336415,0.43275 -0.571743,0.57174 -0.156365,0.0869 -0.450126,0.13267 -0.450126,-0.12319 -0.623859,-2.86818 -2.219057,-5.37628 -3.724226,-7.8512 -0.295347,-0.49119 -0.794426,-0.80548 -1.239813,-1.14664 -0.306013,-0.24385 -0.682665,-0.38636 -1.060539,-0.3883 z m -32.285115,0.20426 -1.217334,1.54325 c 0.107723,0.0504 0.213988,0.10001 0.315348,0.15069 3.403599,1.47832 7.209941,1.20668 10.829917,1.09138 1.994776,-0.1374 3.999034,-0.0742 5.992234,-0.2369 0.576519,-0.0217 1.153968,-0.0431 1.731636,-0.0576 l 0.48258,-1.84552 c -5.699759,-0.19251 -11.44125,0.61641 -17.114235,-0.24013 -0.375458,-0.0258 -0.728063,-0.17535 -1.020146,-0.40516 z m 6.218519,10.11949 c -0.06873,-1.3e-4 -0.137551,-1.3e-4 -0.206303,0 -1.941367,0.004 -3.876626,0.10764 -5.789669,0.49484 -0.511696,0.13272 -1.079272,0.28746 -1.578233,0.53908 l 1.156593,1.46626 c 0.37184,-0.20372 0.869032,-0.19048 1.277672,-0.2759 4.687889,-0.64223 9.40206,-0.58028 14.118847,-0.46684 l 0.448878,-1.71664 c -1.011268,0.0198 -2.022426,0.0415 -3.033383,0.0623 -2.123932,0.0154 -4.262503,-0.10003 -6.394402,-0.10318 z m -8.633796,1.95213 c -0.05579,0.0923 -0.105034,0.19078 -0.146639,0.2959 -0.587532,2.2538 -0.540147,4.62605 -0.243223,6.91933 0.476983,0.11529 1.012371,0.20216 1.475132,-0.008 0.61755,-0.57964 0.500675,-1.52727 0.440656,-2.29328 -0.119693,-0.98776 -0.238482,-2.03622 -0.02808,-3.01518 z"
       id="path3344"
       inkscape:connector-curvature="0" />
    <path
       style="fill:#800000;stroke-width:0.15793961"
       d="m 21.880735,475.22469 c -2.317025,0.006 -4.638636,0.19971 -6.954129,0.21526 -0.705993,0.0253 -1.285348,-0.006 -1.975543,0.16266 0.04111,0.63018 0.164242,1.25565 0.347454,1.85897 4.746086,-0.006 9.392416,-0.48647 14.108491,0.26215 0.22108,0.0245 0.431412,0.0944 0.623968,0.19868 l 1.188181,-1.50633 c -1.17045,-0.51947 -2.436982,-0.8195 -3.702685,-0.9935 -1.209621,-0.15256 -2.422059,-0.201 -3.635737,-0.19789 z m 8.588563,1.86798 -1.502853,1.90523 c 0.03738,0.096 0.06746,0.19437 0.08943,0.2942 0.356944,1.56834 -0.323762,3.20775 0.216385,4.75397 0.51804,0.005 1.036081,0.003 1.555698,0.006 0.358521,-1.7168 0.544906,-3.49836 0.330107,-5.24833 -0.09871,-0.59662 -0.188126,-1.31464 -0.688773,-1.71139 z"
       id="path3346"
       inkscape:connector-curvature="0" />
    <path
       inkscape:connector-curvature="0"
       style="fill:#800000;stroke-width:0.15793961"
       id="path3348"
       d="m 83.507147,475.67053 c 0.143722,-0.39485 0.890782,-0.57806 0.878147,-0.0221 -0.816551,3.49204 -3.127204,6.5387 -6.045927,8.57138 -0.614387,0.39485 -1.211398,0.86867 -1.942661,1.01871 -1.517794,0.37116 -3.037175,0.99976 -4.630787,0.7818 -0.87183,-0.09 -1.607823,-0.63175 -2.171672,-1.27141 0.938158,-0.86551 2.279067,-0.77548 3.457302,-0.90025 0.660185,-0.0411 1.274572,-0.28588 1.873161,-0.54805 3.770015,-1.22088 6.619247,-4.29439 8.582437,-7.63007 z" />
    <path
       inkscape:connector-curvature="0"
       style="fill:#800000;stroke-width:0.15793961"
       id="path3350"
       d="m 79.587084,485.1864 c 2.195364,-2.01216 3.563119,-4.71134 5.013009,-7.26839 0.612801,-0.0364 0.83234,0.56859 0.971322,1.0503 -0.480137,2.40069 -1.394602,4.78399 -3.059291,6.61925 -1.336168,1.48463 -3.173003,2.47334 -5.115664,2.89977 -1.069245,0.25902 -2.294855,0.17373 -3.163522,-0.56542 0.0018,-0.23217 0.0027,-0.46277 0.0064,-0.69335 1.975825,0.10265 3.91216,-0.70757 5.347829,-2.04216 z" />
    <path
       inkscape:connector-curvature="0"
       style="fill:#800000;stroke-width:0.15793961"
       id="path3352"
       d="m 81.569226,487.63919 c 0.694935,-0.66334 1.416717,-1.29826 2.121133,-1.95371 0.881302,1.7405 1.653622,3.6184 3.106675,4.97668 1.02187,0.98081 2.515972,1.49569 3.918477,1.18613 0.914475,-0.1153 1.813151,-0.5291 2.746568,-0.39485 0.86709,0.17531 1.145062,1.11347 1.280885,1.87001 -2.337495,1.15769 -5.071437,0.86077 -7.513178,0.21953 -0.169,0.66334 -0.05214,1.34248 0.06162,2.00425 0.135827,0.68862 -0.02525,1.37882 -0.112135,2.06269 -0.368002,2.49229 -1.432515,4.96089 -3.348321,6.65084 -0.759695,0.65861 -1.603092,1.25404 -2.557048,1.58729 0.07739,-0.62228 0.148462,-1.24614 0.29377,-1.85421 0.03473,-0.18636 0.227434,-0.26533 0.358521,-0.37432 1.110321,-0.76759 2.201682,-1.72943 2.640751,-3.04823 0.356943,-1.59045 0.718627,-3.20933 0.5828,-4.85348 -0.172155,-3.01349 -1.547814,-5.87536 -3.580494,-8.07862 z" />
    <path
       inkscape:connector-curvature="0"
       style="fill:#800000;stroke-width:0.15793961"
       id="path3354"
       d="m 78.072444,489.19806 c 0.672829,-0.23849 1.380399,-0.42959 2.100603,-0.34904 1.320371,2.53966 1.653622,5.48207 1.396179,8.30446 -0.290607,3.62945 -1.298264,7.14518 -1.822622,10.73831 -0.148462,0.95712 0.135827,1.90791 0.301664,2.84292 0.304828,1.5478 1.010812,3.04981 2.234846,4.08116 -0.137405,0.54015 -0.01577,1.16559 -0.315877,1.65204 -0.366424,0.3301 -0.799176,-0.0774 -1.12611,-0.26217 -1.990037,-1.2651 -2.969261,-3.63261 -3.127204,-5.91169 -0.05998,-1.3946 -0.06791,-2.80342 0.16426,-4.18381 0.499088,-3.39097 1.866844,-6.62557 1.967921,-10.07813 -0.0046,-1.03924 0.0742,-2.15588 -0.505406,-3.07192 -1.614141,1.66625 -3.116146,3.52679 -3.943746,5.71899 -0.402751,1.06135 -0.565425,2.20167 -0.525944,3.33568 -0.551204,0.10424 -1.100841,0.20848 -1.656785,0.28587 -0.451704,-1.50201 -0.374319,-3.15247 0.279558,-4.58341 1.288784,-2.96769 4.010083,-5.22938 4.578663,-8.51926 z" />
    <path
       style="fill:#800000;stroke-width:0.15793961"
       d="m 18.691707,494.00418 c -1.117295,-0.006 -2.235347,0.15753 -3.299168,0.49117 -2.064933,0.64494 -3.78676,2.28025 -4.525898,4.31183 h 4.304992 c 0.06044,-0.101 0.12508,-0.20007 0.194069,-0.29698 0.647551,-0.94607 1.734161,-1.54782 2.868166,-1.66469 1.825785,-0.22901 3.675254,0.35061 5.17726,1.38354 0.0095,-1.03608 0.0027,-2.07375 0.0027,-3.10983 -1.458222,-0.73428 -3.089619,-1.10605 -4.722594,-1.11504 z m -8.169503,6.11786 c -0.324555,1.74701 -0.221499,3.59202 0.408549,5.25693 0.786541,2.07217 2.628115,3.65788 4.749239,4.24858 2.549145,0.7044 5.365195,0.47856 7.735867,-0.71231 -0.0018,-1.03766 0.0027,-2.07532 -0.0027,-3.11298 -1.026609,0.6744 -2.171671,1.20981 -3.400436,1.35985 -1.219293,0.15794 -2.549153,0.0852 -3.597878,-0.62071 -1.194024,-0.77548 -1.822623,-2.18587 -1.961604,-3.56469 -0.0935,-0.94087 -0.07156,-1.93216 0.172984,-2.85467 z"
       id="path3356"
       inkscape:connector-curvature="0" />
    <path
       style="fill:#800000;stroke-width:0.15793961"
       d="m 32.04094,494.34354 c -1.784718,-2e-4 -3.569427,9.1e-4 -5.354145,0.005 0.0018,1.50614 0.0018,3.01228 0.0027,4.51847 h 3.968423 c -3.64e-4,-0.52114 -9.11e-4,-1.04228 -4.01e-4,-1.56342 2.245903,-0.002 4.490229,0 6.736131,-0.002 0.0018,-0.98554 -0.0018,-1.97109 0.0018,-2.95506 -1.784719,-0.002 -3.569455,-0.003 -5.354174,-0.004 z m -5.35132,5.83825 c 5.29e-4,3.16666 -2.64e-4,6.33354 -9.11e-4,9.50104 3.656302,0 7.312596,0.009 10.970475,-0.005 -0.01422,-0.98238 -0.0095,-1.9632 -0.0027,-2.94559 -2.334345,-0.009 -4.668691,0.006 -7.001459,-0.008 0.0064,-1.17508 0.0064,-2.34858 0,-3.52207 2.135344,-0.011 4.27068,-0.002 6.406025,-0.006 -0.0018,-0.98397 0,-1.96633 0,-2.9503 -2.135345,-0.005 -4.270699,0.005 -6.404466,-0.005 1.36e-4,-0.0198 1.36e-4,-0.0396 2.18e-4,-0.0594 z"
       id="path3358"
       inkscape:connector-curvature="0" />
    <path
       style="fill:#800000;stroke-width:0.15793961"
       d="m 45.259707,494.34165 c -0.277681,-2.6e-4 -0.555334,-1.9e-4 -0.833015,1.4e-4 v 0 c -1.110713,9.1e-4 -2.221599,0.005 -3.332704,0.006 0.0018,1.52502 0.0018,3.0502 0.0027,4.57542 h 3.967703 c 2.01e-4,-0.59494 5.38e-4,-1.18976 5.38e-4,-1.78456 0.517247,0.0252 1.05094,-0.016 1.578069,-0.0104 0.52712,0.005 1.047649,0.0576 1.53805,0.26928 0.588799,0.28432 0.804473,0.9035 0.831948,1.52569 h 3.952826 c 0.09358,-1.1796 -0.178581,-2.41325 -1.03217,-3.25833 -1.115053,-1.0345 -2.718145,-1.23344 -4.174352,-1.30924 -0.833325,-0.01 -1.666412,-0.0139 -2.499445,-0.0147 z m -4.163003,5.89709 c 3.56e-4,3.14814 -7.75e-4,6.29638 -0.0027,9.44407 1.326697,0 2.651945,0.01 3.978642,-0.005 -0.01896,-1.93476 -0.0027,-3.8681 -0.0095,-5.80128 0.83234,0.0205 1.734188,-0.12637 2.487557,0.31744 0.671243,0.4296 1.039153,1.16878 1.381876,1.86056 0.57806,1.20508 1.19716,2.39285 1.748373,3.61056 1.41514,0.0395 2.830253,0.0141 4.245393,0.0141 -0.813388,-1.59677 -1.563639,-3.22515 -2.38019,-4.82034 -0.541733,-1.02661 -1.298174,-2.07999 -2.484303,-2.38481 1.131407,-0.34015 2.204772,-1.11072 2.635163,-2.23569 h -3.922734 c -0.211217,0.36691 -0.572454,0.64381 -0.99939,0.72747 -0.887619,0.19743 -1.808274,0.0932 -2.710104,0.11684 -3.47e-4,-0.28151 -4.74e-4,-0.56292 -5.66e-4,-0.84431 z"
       id="path3360"
       inkscape:connector-curvature="0" />
    <path
       inkscape:connector-curvature="0"
       style="fill:#800000;stroke-width:0.15793961"
       id="path3362"
       d="m 54.577353,494.34532 c 4.746086,0.002 9.492171,-0.008 14.239834,0.005 -0.0064,0.98397 -0.0018,1.96793 -0.0027,2.9519 -1.712064,0.002 -3.424129,0 -5.134616,0.002 0.0018,4.12697 -0.0046,8.25235 0.0027,12.37931 -1.325111,0.003 -2.650231,0.003 -3.975342,-0.002 0.0082,-4.12539 0,-8.25077 0.0027,-12.37616 -1.713651,-0.005 -3.428869,-0.002 -5.14252,-0.003 0.0027,-0.98554 -0.01103,-1.97109 0.0095,-2.95663 z" />
  </g>
</svg>
